<?xml version="1.0" encoding="UTF-8" standalone="no"?>
<svg
   version="1.1"
   width="200"
   height="200"
   x="0"
   y="0"
   viewBox="0 0 50 50"
   xml:space="preserve"
   class=""
   id="svg4"
   sodipodi:docname="logo.svg"
   inkscape:version="1.4 (e7c3feb100, 2024-10-09)"
   inkscape:export-filename="logo.png"
   inkscape:export-xdpi="96"
   inkscape:export-ydpi="96"
   xmlns:inkscape="http://www.inkscape.org/namespaces/inkscape"
   xmlns:sodipodi="http://sodipodi.sourceforge.net/DTD/sodipodi-0.dtd"
   xmlns="http://www.w3.org/2000/svg"
   xmlns:svg="http://www.w3.org/2000/svg">
  <style
   id="style1">
    path {fill: black;}
    @media (prefers-color-scheme: dark) {
      path {fill: hsl(221, 14%, 71%);}
    }
  </style>
   <defs
   id="defs4" /><sodipodi:namedview
   id="namedview4"
   pagecolor="#ffffff"
   bordercolor="#000000"
   borderopacity="0.25"
   inkscape:showpageshadow="2"
   inkscape:pageopacity="0.0"
   inkscape:pagecheckerboard="0"
   inkscape:deskcolor="#d1d1d1"
   showgrid="false"
   inkscape:zoom="1.7734375"
   inkscape:cx="255.71806"
   inkscape:cy="256"
   inkscape:window-width="1920"
   inkscape:window-height="1162"
   inkscape:window-x="0"
   inkscape:window-y="0"
   inkscape:window-maximized="1"
   inkscape:current-layer="svg4" /><path
   d="M 46.040307,8.0214927 H 3.959692 A 3.1699368,3.1699368 0 0 0 0.79343208,11.187753 v 27.624493 a 3.1699368,3.1699368 0 0 0 3.16625992,3.16626 h 42.080615 a 3.1699368,3.1699368 0 0 0 3.16626,-3.16626 V 11.187753 A 3.1699368,3.1699368 0 0 0 46.040307,8.0214927 Z M 9.8354532,40.548582 12.459976,34.624612 h 25.080047 l 2.624523,5.92397 z M 47.776643,38.812246 a 1.7383788,1.7383788 0 0 1 -1.736336,1.736336 H 41.728474 L 38.65904,33.620397 a 0.71537045,0.71537045 0 0 0 -0.653679,-0.4253 H 11.994638 a 0.71537045,0.71537045 0 0 0 -0.653679,0.4253 L 8.2715251,40.548991 H 3.959692 A 1.7383788,1.7383788 0 0 1 2.2233559,38.812655 V 11.187753 A 1.7383788,1.7383788 0 0 1 3.959692,9.4514165 h 42.080615 a 1.7383788,1.7383788 0 0 1 1.736336,1.7363365 z"
   fill="#000000"
   opacity="1"
   data-original="#000000"
   class=""
   id="path1"
   style="stroke-width:0.4085;stroke-dasharray:none;fill:#2e333d;fill-opacity:1" /><path
   d="m 45.427482,38.097284 h -2.144885 a 0.714962,0.714962 0 0 0 0,1.429924 h 2.144885 a 0.714962,0.714962 0 0 0 0,-1.429924 z M 45.52962,29.007055 V 13.63905 A 1.9430622,1.9430622 0 0 0 43.589009,11.69844 H 6.4109899 A 1.9430622,1.9430622 0 0 0 4.470379,13.63905 v 15.368005 a 1.9430622,1.9430622 0 0 0 1.9406109,1.94061 H 43.589009 a 1.9430622,1.9430622 0 0 0 1.940611,-1.94061 z m -39.6293172,0 V 13.63905 A 0.51150417,0.51150417 0 0 1 6.4109899,13.128363 H 43.589009 a 0.51150417,0.51150417 0 0 1 0.510687,0.510687 v 15.368005 a 0.51150417,0.51150417 0 0 1 -0.510687,0.510687 H 6.4109899 A 0.51150417,0.51150417 0 0 1 5.9003028,29.007055 Z"
   fill="#000000"
   opacity="1"
   data-original="#000000"
   class=""
   id="path2"
   style="stroke-width:0.4085;stroke-dasharray:none;fill:#2e333d;fill-opacity:1" /><path
   d="M 35.458871,14.927616 H 14.541128 a 6.3954365,6.3954365 0 0 0 0,12.790873 h 20.917743 a 6.3954365,6.3954365 0 0 0 0,-12.790873 z M 9.5772498,21.323052 a 4.9655126,4.9655126 0 1 1 4.9736832,4.965105 h -0.0098 A 4.9708237,4.9708237 0 0 1 9.5772498,21.323052 Z m 8.9880922,4.965105 a 6.3819542,6.3819542 0 0 0 0,-9.930617 h 12.869315 a 6.3819542,6.3819542 0 0 0 0,9.930617 z m 16.894346,0 h -0.01103 a 4.7939217,4.7939217 0 1 1 0.01103,0 z"
   fill="#000000"
   opacity="1"
   data-original="#000000"
   class=""
   id="path3"
   style="stroke-width:0.4085;stroke-dasharray:none;fill:#2e333d;fill-opacity:1" /><path
   d="m 35.458871,17.378914 a 3.9441384,3.9441384 0 1 0 3.942504,3.944138 3.9486325,3.9486325 0 0 0 -3.942504,-3.944138 z m 0,6.457945 a 2.5142146,2.5142146 0 1 1 2.51258,-2.513807 2.5170745,2.5170745 0 0 1 -2.51258,2.513807 z m -20.917743,1.429923 a 3.9441384,3.9441384 0 1 0 -3.942504,-3.94373 3.9486325,3.9486325 0 0 0 3.942504,3.94373 z m 0,-6.457944 a 2.5142146,2.5142146 0 1 1 -2.51258,2.514214 2.5170745,2.5170745 0 0 1 2.51258,-2.514214 z m 0.274137,16.837148 a 1.9406109,1.9406109 0 1 0 1.940611,1.940611 1.9426536,1.9426536 0 0 0 -1.940611,-1.940611 z m 0,2.451298 a 0.51068707,0.51068707 0 1 1 0.510687,-0.510687 0.51150417,0.51150417 0 0 1 -0.510687,0.510687 z m 20.369469,-2.451298 a 1.9406109,1.9406109 0 1 0 1.940611,1.940611 1.9426536,1.9426536 0 0 0 -1.940611,-1.940611 z m 0,2.451298 a 0.51068707,0.51068707 0 1 1 0.510687,-0.510687 0.51109562,0.51109562 0 0 1 -0.510687,0.510687 z m -5.282139,-1.225649 h -9.805191 a 0.714962,0.714962 0 1 0 0,1.429924 h 9.805191 a 0.714962,0.714962 0 0 0 0,-1.429924 z"
   fill="#000000"
   opacity="1"
   data-original="#000000"
   class=""
   id="path4"
   style="stroke-width:0.4085;stroke-dasharray:none;fill:#2e333d;fill-opacity:1" /></svg>
