<?xml version="1.0" encoding="UTF-8" standalone="no"?>
<svg
   version="1.1"
   width="200"
   height="200"
   x="0"
   y="0"
   viewBox="0 0 50 50"
   xml:space="preserve"
   class=""
   id="svg4"
   sodipodi:docname="logo.svg"
   inkscape:version="1.4 (e7c3feb100, 2024-10-09)"
   inkscape:export-filename="logo.png"
   inkscape:export-xdpi="96"
   inkscape:export-ydpi="96"
   xmlns:inkscape="http://www.inkscape.org/namespaces/inkscape"
   xmlns:sodipodi="http://sodipodi.sourceforge.net/DTD/sodipodi-0.dtd"
   xmlns="http://www.w3.org/2000/svg">
  <style>
    path {fill: black;}
    @media (prefers-color-scheme: dark) {
      path {fill: hsl(221, 14%, 71%);}
    }
  </style>
   <defs
     id="defs4" /><sodipodi:namedview
     id="namedview4"
     pagecolor="#ffffff"
     bordercolor="#000000"
     borderopacity="0.25"
     inkscape:showpageshadow="2"
     inkscape:pageopacity="0.0"
     inkscape:pagecheckerboard="0"
     inkscape:deskcolor="#d1d1d1"
     showgrid="false"
     inkscape:zoom="1.7734375"
     inkscape:cx="255.71806"
     inkscape:cy="256"
     inkscape:window-width="1920"
     inkscape:window-height="1161"
     inkscape:window-x="0"
     inkscape:window-y="0"
     inkscape:window-maximized="1"
     inkscape:current-layer="svg4" /><g
     id="g4"
     transform="matrix(0.40854966,0,0,0.40854966,-1.1471788,-1.1471788)"><path
       d="m 115.5,22.442 h -103 a 7.759,7.759 0 0 0 -7.75,7.75 v 67.616 a 7.759,7.759 0 0 0 7.75,7.75 h 103 a 7.759,7.759 0 0 0 7.75,-7.75 V 30.192 a 7.759,7.759 0 0 0 -7.75,-7.75 z m -88.618,79.616 6.424,-14.5 h 61.388 l 6.424,14.5 z m 92.868,-4.25 a 4.255,4.255 0 0 1 -4.25,4.25 H 104.946 L 97.433,85.1 a 1.751,1.751 0 0 0 -1.6,-1.041 H 32.167 a 1.751,1.751 0 0 0 -1.6,1.041 l -7.513,16.959 H 12.5 A 4.255,4.255 0 0 1 8.25,97.809 V 30.192 a 4.255,4.255 0 0 1 4.25,-4.25 h 103 a 4.255,4.255 0 0 1 4.25,4.25 z"
       fill="#000000"
       opacity="1"
       data-original="#000000"
       class=""
       id="path1" /><path
       d="m 114,96.058 h -5.25 a 1.75,1.75 0 0 0 0,3.5 H 114 a 1.75,1.75 0 0 0 0,-3.5 z m 0.25,-22.25 V 36.192 a 4.756,4.756 0 0 0 -4.75,-4.75 h -91 a 4.756,4.756 0 0 0 -4.75,4.75 v 37.616 a 4.756,4.756 0 0 0 4.75,4.75 h 91 a 4.756,4.756 0 0 0 4.75,-4.75 z m -97,0 V 36.192 a 1.252,1.252 0 0 1 1.25,-1.25 h 91 a 1.252,1.252 0 0 1 1.25,1.25 v 37.616 a 1.252,1.252 0 0 1 -1.25,1.25 h -91 a 1.252,1.252 0 0 1 -1.25,-1.25 z"
       fill="#000000"
       opacity="1"
       data-original="#000000"
       class=""
       id="path2" /><path
       d="M 89.6,39.346 H 38.4 a 15.654,15.654 0 0 0 0,31.308 h 51.2 a 15.654,15.654 0 0 0 0,-31.308 z M 26.25,55 A 12.154,12.154 0 1 1 38.424,67.153 H 38.4 A 12.167,12.167 0 0 1 26.25,55 Z m 22,12.153 a 15.621,15.621 0 0 0 0,-24.307 h 31.5 a 15.621,15.621 0 0 0 0,24.307 z m 41.352,0 h -0.027 a 11.734,11.734 0 1 1 0.027,0 z"
       fill="#000000"
       opacity="1"
       data-original="#000000"
       class=""
       id="path3" /><path
       d="M 89.6,45.346 A 9.654,9.654 0 1 0 99.25,55 9.665,9.665 0 0 0 89.6,45.346 Z m 0,15.807 A 6.154,6.154 0 1 1 95.75,55 6.161,6.161 0 0 1 89.6,61.153 Z m -51.2,3.5 A 9.654,9.654 0 1 0 28.75,55 9.665,9.665 0 0 0 38.4,64.653 Z m 0,-15.807 A 6.154,6.154 0 1 1 32.25,55 6.161,6.161 0 0 1 38.4,48.846 Z m 0.671,41.212 a 4.75,4.75 0 1 0 4.75,4.75 4.755,4.755 0 0 0 -4.75,-4.75 z m 0,6 a 1.25,1.25 0 1 1 1.25,-1.25 1.252,1.252 0 0 1 -1.25,1.25 z m 49.858,-6 a 4.75,4.75 0 1 0 4.75,4.75 4.755,4.755 0 0 0 -4.75,-4.75 z m 0,6 a 1.25,1.25 0 1 1 1.25,-1.25 1.251,1.251 0 0 1 -1.25,1.25 z M 76,93.058 H 52 a 1.75,1.75 0 1 0 0,3.5 h 24 a 1.75,1.75 0 0 0 0,-3.5 z"
       fill="#000000"
       opacity="1"
       data-original="#000000"
       class=""
       id="path4" /></g></svg>
