<?xml version="1.0" encoding="UTF-8" standalone="no"?>
<!-- Created with Inkscape (http://www.inkscape.org/) -->

<svg
   width="309.36227"
   height="61.629913"
   viewBox="0 0 309.36227 61.629913"
   version="1.1"
   id="svg5"
   inkscape:version="1.1.2 (0a00cf5339, 2022-02-04, custom)"
   sodipodi:docname="logo.svg"
   xmlns:inkscape="http://www.inkscape.org/namespaces/inkscape"
   xmlns:sodipodi="http://sodipodi.sourceforge.net/DTD/sodipodi-0.dtd"
   xmlns="http://www.w3.org/2000/svg"
   xmlns:svg="http://www.w3.org/2000/svg">
  <sodipodi:namedview
     id="namedview7"
     pagecolor="#ffffff"
     bordercolor="#666666"
     borderopacity="1.0"
     inkscape:pageshadow="2"
     inkscape:pageopacity="0.0"
     inkscape:pagecheckerboard="0"
     inkscape:document-units="px"
     showgrid="false"
     inkscape:zoom="1.9321702"
     inkscape:cx="60.812447"
     inkscape:cy="127.31797"
     inkscape:window-width="2558"
     inkscape:window-height="1395"
     inkscape:window-x="0"
     inkscape:window-y="43"
     inkscape:window-maximized="1"
     inkscape:current-layer="layer1"
     fit-margin-top="0"
     fit-margin-left="0"
     fit-margin-right="0"
     fit-margin-bottom="0" />
  <defs
     id="defs2" />
  <g
     inkscape:label="Layer 1"
     inkscape:groupmode="layer"
     id="layer1"
     transform="translate(-40.906518,-144.54746)">
    <path
       style="fill:#f5dd3d;fill-opacity:1;stroke:none;stroke-width:3;stroke-linecap:butt;stroke-linejoin:miter;stroke-miterlimit:4;stroke-dasharray:none;stroke-opacity:1"
       d="m 44.744782,147.18609 27.640322,27.64032 -27.640322,27.64032 60.630188,-3.38989 21.18374,-24.615 -21.18374,-24.61499 z"
       id="path48216"
       sodipodi:nodetypes="ccccccc" />
    <path
       id="path48216-0"
       style="fill:#ce0150;fill-opacity:0.2;stroke:none;stroke-width:3;stroke-linecap:butt;stroke-linejoin:miter;stroke-miterlimit:4;stroke-dasharray:none;stroke-opacity:1"
       d="m 70.707031,173.14844 1.677735,1.67773 -12.783204,12.78321 h 55.642578 l 11.31445,-13.14844 -1.1289,-1.3125 z" />
    <path
       style="font-variation-settings:normal;opacity:1;fill:none;fill-opacity:1;stroke:#93046e;stroke-width:3;stroke-linecap:butt;stroke-linejoin:miter;stroke-miterlimit:4;stroke-dasharray:none;stroke-dashoffset:0;stroke-opacity:1;stop-color:#000000;stop-opacity:1"
       d="M 61.862524,148.16463 85.74603,174.82212 61.49039,201.47961"
       id="path49068"
       sodipodi:nodetypes="ccc" />
    <path
       style="font-variation-settings:normal;fill:none;fill-opacity:1;stroke:#93046e;stroke-width:3;stroke-linecap:butt;stroke-linejoin:miter;stroke-miterlimit:4;stroke-dasharray:none;stroke-dashoffset:0;stroke-opacity:1;stop-color:#000000"
       d="M 75.812675,148.62323 99.696194,174.16821 75.440541,200.8257"
       id="path49068-6"
       sodipodi:nodetypes="ccc" />
    <path
       style="font-variation-settings:normal;fill:none;fill-opacity:1;stroke:#93046e;stroke-width:3;stroke-linecap:butt;stroke-linejoin:miter;stroke-miterlimit:4;stroke-dasharray:none;stroke-dashoffset:0;stroke-opacity:1;stop-color:#000000"
       d="m 90.890384,149.21909 22.894636,25.54498 -22.895934,25.17414"
       id="path49068-6-7"
       sodipodi:nodetypes="ccc" />
    <path
       style="fill:none;fill-opacity:1;stroke:#93046e;stroke-width:3;stroke-linecap:butt;stroke-linejoin:miter;stroke-miterlimit:4;stroke-dasharray:none;stroke-opacity:1"
       d="m 44.744782,147.18609 27.640322,27.64032 -27.640322,27.64032 60.630188,-3.38989 21.18374,-24.615 -21.18374,-24.61499 z"
       id="path48216-9"
       sodipodi:nodetypes="ccccccc" />
    <path
       id="path47326"
       style="fill:#f3701e;fill-opacity:1;stroke:none;stroke-width:3;stroke-linecap:butt;stroke-linejoin:round;stroke-miterlimit:4;stroke-dasharray:none;stroke-opacity:1"
       d="m 5.4765625,25.550781 0.025391,10.578125 H 218.99414 V 25.550781 Z"
       transform="translate(40.906518,144.54746)" />
    <path
       id="rect189475"
       style="font-variation-settings:normal;fill:#ce0150;fill-opacity:0.2;stroke:none;stroke-width:3;stroke-linecap:butt;stroke-linejoin:round;stroke-miterlimit:4;stroke-dasharray:none;stroke-dashoffset:0;stroke-opacity:1;paint-order:markers stroke fill;stop-color:#000000"
       d="m 5.4921875,31.892578 0.011719,4.236328 H 218.99414 v -4.236328 z"
       transform="translate(40.906518,144.54746)" />
    <path
       id="path47326-6"
       style="fill:#ffffff;fill-opacity:0.2;stroke:none;stroke-width:3;stroke-linecap:butt;stroke-linejoin:round;stroke-miterlimit:4;stroke-dasharray:none;stroke-opacity:1"
       d="m 5.4765625,25.550781 0.00781,2.845703 H 218.99414 v -2.845703 z"
       transform="translate(40.906518,144.54746)" />
    <path
       style="fill:#f5dd3d;fill-opacity:1;stroke:none;stroke-width:3;stroke-linecap:butt;stroke-linejoin:miter;stroke-miterlimit:4;stroke-dasharray:none;stroke-opacity:1;paint-order:markers fill stroke"
       d="m 284.40923,175.38703 -20.12512,-29.27556 c 0,0 49.3081,-2.7858 83.67638,29.27556 -37.23084,29.0361 -83.67638,29.27557 -83.67638,29.27557 z"
       id="path49862" />
    <path
       id="path49862-36"
       style="fill:#ffffff;fill-opacity:0.3;stroke:none;stroke-width:3;stroke-linecap:butt;stroke-linejoin:miter;stroke-miterlimit:4;stroke-dasharray:none;stroke-opacity:1;paint-order:markers fill stroke"
       d="m 266.4707,146.05469 c -1.41539,0.0136 -2.1875,0.0566 -2.1875,0.0566 l 2.76368,4.01953 c 14.49998,0.48747 53.87157,1.20128 80.49218,25.57226 1.56023,-1.09984 -1.11099,0.87907 0.42188,-0.3164 -33.93889,-23.9199 -71.58248,-29.42691 -81.49024,-29.33203 z"
       sodipodi:nodetypes="sccccs" />
    <path
       id="path49862-3"
       style="fill:#ce0150;fill-opacity:0.2;stroke:none;stroke-width:3;stroke-linecap:butt;stroke-linejoin:miter;stroke-miterlimit:4;stroke-dasharray:none;stroke-opacity:1;paint-order:markers stroke fill"
       d="m 284.19336,175.70312 -19.91016,28.95899 c 0,0 46.09655,-0.24645 83.25586,-28.95899 z" />
    <path
       id="path49862-3-6"
       style="fill:#ce0150;fill-opacity:0.2;stroke:none;stroke-width:3;stroke-linecap:butt;stroke-linejoin:miter;stroke-miterlimit:4;stroke-dasharray:none;stroke-opacity:1;paint-order:markers stroke fill"
       d="m 284.19336,175.70312 -19.91016,28.95899 c 0,0 46.09655,-0.24644 83.25586,-28.95899 h -1.52539 c -36.0456,24.71656 -77.73047,24.95899 -77.73047,24.95899 l 17.16016,-24.95899 z" />
    <path
       style="fill:none;fill-opacity:1;stroke:#93046e;stroke-width:3;stroke-linecap:butt;stroke-linejoin:miter;stroke-miterlimit:4;stroke-dasharray:none;stroke-opacity:1;paint-order:markers fill stroke"
       d="m 284.40923,175.38703 -20.12512,-29.27556 c 0,0 49.3081,-2.7858 83.67638,29.27556 -37.23084,29.0361 -83.67638,29.27557 -83.67638,29.27557 z"
       id="path49862-6" />
    <path
       id="path47326-5"
       style="fill:#f5dd3d;fill-opacity:1;stroke:none;stroke-width:3;stroke-linecap:butt;stroke-linejoin:miter;stroke-miterlimit:4;stroke-dasharray:none;stroke-opacity:1"
       d="m 256.7793,170.09766 v 10.57812 h 37.92968 c 0,0 10.67774,0.44718 10.67774,-5.28906 0,-5.73624 -10.67774,-5.28906 -10.67774,-5.28906 z" />
    <path
       id="path47326-5-9"
       style="fill:#ce0150;fill-opacity:0.2;stroke:none;stroke-width:3;stroke-linecap:butt;stroke-linejoin:miter;stroke-miterlimit:4;stroke-dasharray:none;stroke-opacity:1"
       d="m 256.7793,176.16211 v 4.51367 h 37.92968 c 0,0 9.67474,0.40054 10.59961,-4.51367 z" />
    <path
       id="path47326-5-1"
       style="fill:none;fill-opacity:1;stroke:#93046e;stroke-width:3;stroke-linecap:butt;stroke-linejoin:miter;stroke-miterlimit:4;stroke-dasharray:none;stroke-opacity:1"
       d="m 256.7793,170.09766 v 10.57812 h 37.92968 c 0,0 10.67774,0.44718 10.67774,-5.28906 0,-5.73624 -10.67774,-5.28906 -10.67774,-5.28906 z" />
    <path
       id="path47326-7"
       style="fill:none;fill-opacity:1;stroke:#93046e;stroke-width:3;stroke-linecap:butt;stroke-linejoin:round;stroke-miterlimit:4;stroke-dasharray:none;stroke-opacity:1"
       d="m 5.4765625,25.550781 0.025391,10.578125 H 218.99414 V 25.550781 Z"
       transform="translate(40.906518,144.54746)" />
    <rect
       style="font-variation-settings:normal;opacity:1;fill:#f3701e;fill-opacity:1;stroke:none;stroke-width:3;stroke-linecap:butt;stroke-linejoin:miter;stroke-miterlimit:4;stroke-dasharray:none;stroke-dashoffset:0;stroke-opacity:1;stop-color:#000000;stop-opacity:1"
       id="rect49747"
       width="14.879979"
       height="24.424025"
       x="250.08096"
       y="163.17503"
       ry="6.8556714" />
    <path
       id="rect49747-5"
       style="font-variation-settings:normal;fill:#ce0150;fill-opacity:0.2;stroke:none;stroke-width:3;stroke-linecap:butt;stroke-linejoin:miter;stroke-miterlimit:4;stroke-dasharray:none;stroke-dashoffset:0;stroke-opacity:1;stop-color:#000000"
       d="m 256.9375,163.17578 c -3.79804,0 -6.85742,3.05743 -6.85742,6.85547 v 10.71289 c 0,3.79804 3.05938,6.85547 6.85742,6.85547 h 1.16797 c 0.13791,0 0.27431,-0.006 0.41015,-0.0137 V 163.1875 c -0.13584,-0.008 -0.27225,-0.0117 -0.41015,-0.0117 z" />
    <rect
       style="font-variation-settings:normal;fill:none;fill-opacity:1;stroke:#93046e;stroke-width:3;stroke-linecap:butt;stroke-linejoin:miter;stroke-miterlimit:4;stroke-dasharray:none;stroke-dashoffset:0;stroke-opacity:1;stop-color:#000000"
       id="rect49747-2"
       width="14.879979"
       height="24.424025"
       x="250.08096"
       y="163.17503"
       ry="6.8556714" />
  </g>
</svg>
